<svg id="Capa_1" enable-background="new 0 0 512 512" height="512" viewBox="0 0 512 512" width="512" xmlns="http://www.w3.org/2000/svg">
    <path d="m256 115.298c-77.583 0-140.701 63.119-140.701 140.702s63.118 140.702 140.701 140.702 140.701-63.119 140.701-140.702-63.118-140.702-140.701-140.702zm0 251.404c-61.041 0-110.701-49.661-110.701-110.702s49.66-110.702 110.701-110.702 110.701 49.661 110.701 110.702-49.66 110.702-110.701 110.702z"/>
    <path d="m218.25 95.386h75.5c5.359 0 10.311-2.859 12.99-7.5s2.68-10.359 0-15l-37.75-65.386c-2.679-4.641-7.631-7.5-12.99-7.5s-10.311 2.859-12.99 7.5l-37.75 65.386c-2.68 4.641-2.68 10.359 0 15s7.631 7.5 12.99 7.5zm37.75-50.386 11.77 20.385h-23.54z"/>
    <path d="m293.75 416.614h-75.5c-5.359 0-10.311 2.859-12.99 7.5s-2.68 10.359 0 15l37.75 65.386c2.68 4.641 7.631 7.5 12.99 7.5s10.311-2.859 12.99-7.5l37.75-65.386c2.68-4.641 2.68-10.359 0-15s-7.631-7.5-12.99-7.5zm-37.75 50.386-11.77-20.385h23.539z"/>
    <path d="m504.5 243.01-65.386-37.75c-4.641-2.68-10.359-2.68-15 0-4.641 2.679-7.5 7.631-7.5 12.99v75.501c0 5.359 2.859 10.311 7.5 12.99 2.32 1.34 4.91 2.01 7.5 2.01s5.18-.67 7.5-2.01l65.386-37.75c4.641-2.679 7.5-7.631 7.5-12.99s-2.859-10.312-7.5-12.991zm-57.886 24.76v-23.54l20.386 11.77z"/>
    <path d="m80.386 308.75c2.59 0 5.18-.67 7.5-2.01 4.641-2.679 7.5-7.631 7.5-12.99v-75.5c0-5.359-2.859-10.311-7.5-12.99-4.641-2.68-10.359-2.68-15 0l-65.386 37.75c-4.641 2.679-7.5 7.631-7.5 12.99s2.859 10.311 7.5 12.99l65.386 37.75c2.32 1.341 4.91 2.01 7.5 2.01zm-15-40.98-20.386-11.77 20.386-11.77z"/>
    <path d="m396.266 175.333c2.85 2.85 6.681 4.394 10.607 4.394 1.294 0 2.599-.168 3.882-.512 5.176-1.387 9.219-5.43 10.606-10.606l19.541-72.928c1.387-5.176-.093-10.7-3.883-14.489-3.788-3.789-9.314-5.269-14.488-3.882l-72.929 19.541c-5.177 1.387-9.22 5.43-10.607 10.606s.094 10.7 3.883 14.489zm8.934-62.322-6.093 22.738-16.646-16.645z"/>
    <path d="m115.734 349.089c-3.788-3.789-9.312-5.27-14.489-3.882-5.176 1.387-9.219 5.43-10.606 10.606l-19.541 72.928c-1.387 5.176.093 10.7 3.883 14.489 2.85 2.85 6.681 4.394 10.607 4.394 1.294 0 2.599-.168 3.881-.512l72.929-19.541c5.177-1.387 9.22-5.43 10.607-10.606s-.094-10.7-3.883-14.489zm-8.934 62.322 6.093-22.737 16.646 16.645z"/>
    <path d="m421.361 355.813c-1.388-5.176-5.431-9.22-10.606-10.606-5.18-1.387-10.7.093-14.489 3.882l-53.388 53.387c-3.789 3.789-5.27 9.313-3.883 14.489 1.388 5.176 5.431 9.22 10.607 10.606l72.929 19.541c1.283.344 2.587.512 3.881.512 3.927 0 7.758-1.544 10.607-4.394 3.79-3.789 5.27-9.313 3.883-14.489zm-38.899 49.505 16.646-16.645 6.093 22.737z"/>
    <path d="m90.639 168.609c1.388 5.176 5.431 9.22 10.606 10.606 1.284.344 2.588.512 3.882.512 3.927 0 7.758-1.544 10.607-4.394l53.388-53.387c3.789-3.789 5.27-9.313 3.883-14.489-1.388-5.176-5.431-9.22-10.607-10.606l-72.929-19.541c-5.176-1.388-10.699.093-14.488 3.882-3.79 3.789-5.27 9.313-3.883 14.489zm38.899-49.505-16.646 16.645-6.093-22.738z"/>
</svg>
